<svg width="128" height="54" viewBox="0 0 128 54" fill="none" xmlns="http://www.w3.org/2000/svg">
<circle cx="101" cy="27" r="27" fill="#43D854"/>
<circle cx="27" cy="27" r="27" fill="#34AADF"/>
<path d="M106.75 29.5C106.5 29.375 104.875 28.625 104.625 28.5C104.375 28.375 104.125 28.375 103.875 28.625C103.625 28.875 103.125 29.625 102.875 29.875C102.75 30.125 102.5 30.125 102.25 30C101.375 29.625 100.5 29.125 99.75 28.5C99.125 27.875 98.5 27.125 98 26.375C97.875 26.125 98 25.875 98.125 25.75C98.25 25.625 98.375 25.375 98.625 25.25C98.75 25.125 98.875 24.875 98.875 24.75C99 24.625 99 24.375 98.875 24.25C98.75 24.125 98.125 22.625 97.875 22C97.75 21.125 97.5 21.125 97.25 21.125H96.625C96.375 21.125 96 21.375 95.875 21.5C95.125 22.25 94.75 23.125 94.75 24.125C94.875 25.25 95.25 26.375 96 27.375C97.375 29.375 99.125 31 101.25 32C101.875 32.25 102.375 32.5 103 32.625C103.625 32.875 104.25 32.875 105 32.75C105.875 32.625 106.625 32 107.125 31.25C107.375 30.75 107.375 30.25 107.25 29.75L106.75 29.5ZM109.875 18.125C105 13.25 97.125 13.25 92.25 18.125C88.25 22.125 87.5 28.25 90.25 33.125L88.5 39.5L95.125 37.75C97 38.75 99 39.25 101 39.25C107.875 39.25 113.375 33.75 113.375 26.875C113.5 23.625 112.125 20.5 109.875 18.125ZM106.5 35.625C104.875 36.625 103 37.25 101 37.25C99.125 37.25 97.375 36.75 95.75 35.875L95.375 35.625L91.5 36.625L92.5 32.875L92.25 32.5C89.25 27.5 90.75 21.25 95.625 18.125C100.5 15 106.75 16.625 109.75 21.375C112.75 26.25 111.375 32.625 106.5 35.625Z" fill="white"/>
<path fill-rule="evenodd" clip-rule="evenodd" d="M21.7611 30.1052L15.9366 27.5911C15.3249 27.3265 14.9361 26.7159 14.9558 26.0497C14.9767 25.3834 15.4004 24.7973 16.0271 24.5709C20.2788 23.0318 33.1384 18.375 36.8643 17.0251C37.4284 16.822 38.0586 16.945 38.5044 17.3455C38.9501 17.7471 39.1381 18.3611 38.9953 18.9438C38.1666 22.2959 35.6038 32.6704 34.8214 35.8368C34.6856 36.3882 34.2713 36.8281 33.7304 36.9975C33.1883 37.1681 32.5975 37.0428 32.1715 36.6679L28.2193 33.1962L25.126 36.1618C24.6814 36.5878 24.0361 36.7259 23.4557 36.5205C22.8765 36.3139 22.4633 35.7985 22.3879 35.188L21.7611 30.1052ZM32.9759 34.5948L36.7575 19.2862L17.8402 26.1367L22.8336 28.2933C23.3629 28.522 23.732 29.0141 23.8028 29.5864L24.3483 34.0133L26.6337 31.8231L26.4318 31.649C26.0824 31.3506 25.877 30.9189 25.8642 30.4604C25.8503 30.0019 26.0325 29.5597 26.3633 29.2416C27.6041 28.0519 30.9144 24.8797 30.9144 24.8797C31.3311 24.4804 31.9928 24.4943 32.392 24.911C32.7902 25.3265 32.7762 25.9881 32.3607 26.3874L28.1798 30.3954L28.8681 30.985L32.9759 34.5948Z" fill="white"/>
</svg>
